<?xml version="1.0" standalone="no"?>
<!DOCTYPE svg PUBLIC "-//W3C//DTD SVG 20010904//EN"
 "http://www.w3.org/TR/2001/REC-SVG-20010904/DTD/svg10.dtd">
<svg version="1.0" xmlns="http://www.w3.org/2000/svg"
 width="48.000000pt" height="48.000000pt" viewBox="0 0 48.000000 48.000000"
 preserveAspectRatio="xMidYMid meet">

<g transform="translate(0.000000,48.000000) scale(0.100000,-0.100000)"
fill="#000000" stroke="none">
<path d="M320 206 c-48 -8 -66 -16 -68 -29 -3 -13 3 -17 28 -17 25 0 31 -4 26
-15 -21 -51 -22 -48 29 -43 56 7 92 38 97 83 3 26 0 30 -22 31 -14 1 -54 -3
-90 -10z"/>
<path d="M131 174 c-40 -7 -76 -16 -79 -19 -3 -3 4 -16 16 -28 19 -18 36 -22
102 -25 54 -3 80 -1 80 7 0 6 -14 11 -31 11 -31 0 -32 3 -12 58 3 6 4 12 2 11
-2 -1 -37 -7 -78 -15z"/>
</g>
</svg>
