<?xml version="1.0" standalone="no"?>
<!DOCTYPE svg PUBLIC "-//W3C//DTD SVG 20010904//EN"
 "http://www.w3.org/TR/2001/REC-SVG-20010904/DTD/svg10.dtd">
<svg version="1.0" xmlns="http://www.w3.org/2000/svg"
 width="1290.000000pt" height="1290.000000pt" viewBox="0 0 1290.000000 1290.000000"
 preserveAspectRatio="xMidYMid meet">

<g transform="translate(0.000000,1290.000000) scale(0.100000,-0.100000)"
fill="#000000" stroke="none">
<path d="M562 12232 c-18 -12 -35 -188 -28 -292 7 -102 35 -220 71 -289 104
-205 397 -329 854 -359 108 -7 116 -6 140 14 34 27 66 44 86 44 14 0 15 -15
13 -112 l-3 -112 -122 -60 c-66 -34 -145 -72 -174 -86 -75 -35 -106 -80 -135
-190 -13 -51 -24 -106 -24 -124 -1 -17 -7 -42 -15 -56 -8 -14 -14 -37 -15 -52
0 -22 -6 -29 -27 -34 -16 -4 -50 -21 -78 -40 -27 -18 -76 -43 -107 -54 -68
-25 -132 -90 -175 -178 -25 -51 -28 -67 -28 -162 0 -93 3 -111 27 -163 54
-116 195 -215 289 -204 53 6 83 -9 78 -38 -2 -10 -13 -22 -24 -28 -11 -6 -27
-14 -35 -19 -8 -4 -25 -12 -36 -17 -65 -29 -245 -229 -326 -364 -111 -185
-144 -326 -154 -664 l-7 -243 549 0 549 0 0 -927 c0 -1405 9 -4595 15 -5413 5
-565 9 -739 20 -787 7 -35 17 -63 22 -63 4 0 8 -9 8 -19 0 -11 4 -22 9 -25 5
-3 12 -18 16 -33 3 -15 10 -30 13 -33 4 -3 20 -24 35 -47 30 -47 141 -163 156
-163 5 0 16 -6 23 -13 26 -24 124 -65 186 -78 51 -10 892 -11 4235 -6 2295 4
4196 10 4225 13 29 4 55 11 58 15 3 5 13 9 22 9 10 0 52 21 95 46 97 58 191
157 235 250 19 38 38 77 43 86 5 10 9 26 9 36 0 10 4 22 9 27 28 30 30 296 25
4245 -2 2219 -7 4056 -9 4082 -6 53 -15 62 -219 253 -65 61 -143 134 -174 163
-30 29 -107 101 -170 160 -64 59 -132 123 -152 142 -20 19 -63 60 -96 90 -32
30 -127 119 -209 196 -83 78 -166 156 -185 174 -19 18 -71 67 -116 109 -133
126 -365 344 -423 397 -29 27 -83 78 -120 112 -36 35 -118 112 -181 170 -63
59 -153 143 -199 187 -86 81 -184 174 -321 303 -78 73 -108 98 -147 120 -18 9
-500 12 -2316 12 l-2293 0 -80 29 c-190 69 -71 65 -1704 68 -811 2 -1481 -1
-1488 -5z m3063 -109 c111 -31 267 -111 348 -178 114 -94 194 -213 234 -345
22 -73 27 -661 15 -1820 l-8 -845 -32 -80 c-89 -222 -270 -346 -587 -402 -112
-19 -211 -20 -1957 -15 l-926 2 4 93 c2 50 6 146 8 212 13 320 155 588 430
809 104 84 126 109 126 144 0 34 -50 79 -96 87 -93 14 -143 36 -198 86 -72 66
-99 133 -94 234 8 165 139 295 343 340 l74 17 3 146 c3 133 5 152 29 202 14
30 47 77 74 104 48 47 127 90 415 223 47 22 175 82 285 134 l200 94 -465 6
c-256 4 -499 11 -540 17 -301 45 -485 121 -574 238 -79 103 -120 300 -99 472
l6 52 1451 -2 1451 -3 80 -22z m4576 -1293 c3 -666 9 -988 16 -1015 35 -124
61 -185 114 -260 86 -123 227 -225 349 -251 19 -4 510 -9 1091 -11 l1056 -3 6
-533 c13 -977 8 -7376 -5 -7416 -31 -98 -47 -129 -96 -182 -35 -38 -67 -62
-90 -70 -27 -8 -1192 -12 -4204 -16 l-4167 -6 -44 21 c-42 20 -137 113 -137
134 0 6 -6 24 -14 41 -8 18 -18 43 -22 57 -5 14 -11 1601 -14 3528 l-5 3502
710 0 c757 0 832 4 1007 51 161 43 319 131 398 223 54 61 126 182 138 229 37
150 37 147 37 937 0 426 -2 867 -4 980 -2 113 -1 322 2 465 8 299 -1 356 -73
498 l-39 77 1992 -2 1992 -3 6 -975z m424 614 c39 -36 95 -88 125 -116 70 -65
291 -271 390 -363 41 -39 102 -96 135 -126 33 -31 197 -184 365 -340 168 -156
327 -304 354 -329 27 -25 59 -54 70 -65 29 -27 266 -246 341 -315 123 -114
157 -149 150 -159 -4 -8 -284 -11 -896 -11 l-890 0 -54 26 c-78 36 -128 99
-160 199 l-25 80 0 793 c0 632 3 792 13 792 7 0 44 -30 82 -66z m-6745 -184
c-45 -24 -50 -24 -50 0 0 17 7 20 43 20 l42 -1 -35 -19z m48 -2917 c-32 -2
-86 -2 -120 0 -35 2 -9 3 57 3 66 0 94 -1 63 -3z"/>
<path d="M743 11961 c7 -117 43 -235 88 -292 66 -84 211 -144 449 -186 82 -14
213 -17 930 -23 946 -7 882 -1 1005 -91 100 -73 191 -124 265 -149 56 -19 81
-22 177 -18 l113 4 2 -850 c3 -810 4 -852 22 -878 65 -97 229 -99 300 -5 l21
28 0 1017 c0 968 -1 1020 -19 1072 -35 103 -79 173 -157 251 -63 62 -95 85
-180 127 -192 95 -39 86 -1623 89 l-1399 3 6 -99z"/>
<path d="M2275 11244 c-132 -62 -278 -131 -325 -153 -363 -171 -418 -200 -454
-236 -69 -68 -76 -96 -76 -301 l0 -181 -83 -6 c-199 -14 -337 -124 -337 -269
0 -110 90 -218 181 -218 24 0 30 3 25 16 -25 65 -14 96 40 114 55 19 124 7
151 -25 21 -24 23 -36 23 -134 0 -176 -35 -257 -144 -335 -34 -24 -74 -59 -91
-76 l-30 -33 30 8 c71 17 146 25 230 25 202 1 355 74 414 199 l26 56 3 598 3
597 37 19 c20 10 47 22 60 26 l23 7 -3 -634 -3 -633 -24 -60 c-44 -112 -168
-207 -326 -250 -33 -9 -132 -20 -220 -25 -238 -13 -331 -48 -425 -161 -58 -70
-81 -112 -104 -189 -15 -50 -46 -217 -46 -247 0 -7 42 20 93 60 195 153 403
254 692 338 94 27 202 65 241 84 125 61 229 198 259 342 12 55 15 197 15 755
0 678 0 687 20 693 14 5 36 -6 77 -38 32 -25 73 -52 91 -61 l32 -17 0 -763 0
-764 -70 -68 c-38 -37 -70 -70 -70 -73 0 -3 24 -6 52 -5 167 2 408 -27 600
-72 l108 -26 30 22 30 21 0 869 0 869 31 22 c28 19 34 21 53 9 46 -29 72 -40
99 -40 l27 0 0 -925 c0 -509 3 -925 8 -925 4 0 30 7 57 16 36 12 101 18 235
21 213 4 273 17 346 72 44 33 113 135 101 147 -3 3 -14 1 -25 -5 -12 -6 -45
-11 -74 -11 -105 0 -213 80 -237 175 -8 30 -11 291 -11 834 l0 791 -52 0 c-78
0 -172 26 -267 71 l-83 41 -37 -36 c-155 -152 -498 -86 -637 121 -21 32 -41
61 -44 64 -3 3 -113 -45 -245 -107z m605 -1129 c0 -404 -1 -735 -2 -735 -2 0
-28 9 -58 19 l-55 18 0 709 0 709 35 6 c19 4 45 7 58 8 l22 1 0 -735z"/>
<path d="M4090 9297 c0 -34 -65 -138 -113 -185 -98 -92 -165 -112 -402 -117
-139 -3 -161 -6 -244 -34 -51 -17 -98 -31 -105 -31 -7 0 -46 15 -87 34 -223
103 -540 157 -919 157 -362 0 -636 -59 -912 -196 -180 -89 -374 -232 -467
-344 l-43 -51 1388 2 1389 3 97 27 c133 36 217 79 288 145 113 104 159 243
160 481 0 102 -2 122 -15 122 -8 0 -15 -6 -15 -13z"/>
<path d="M5870 8759 c-67 -27 -95 -85 -86 -177 4 -37 11 -114 16 -172 10 -135
22 -172 68 -210 69 -57 173 -35 213 47 19 39 19 49 9 220 -6 98 -16 192 -22
208 -29 74 -122 114 -198 84z"/>
<path d="M7167 8442 c-20 -9 -55 -38 -76 -64 -53 -65 -120 -144 -154 -182 -59
-65 -73 -143 -37 -201 31 -49 61 -65 128 -65 69 0 78 6 208 160 49 58 95 111
102 118 6 7 12 20 12 28 0 8 5 14 10 14 17 0 10 102 -9 135 -18 32 -91 75
-126 75 -11 0 -37 -8 -58 -18z"/>
<path d="M4651 8212 c-35 -11 -82 -73 -88 -119 -9 -70 13 -101 172 -237 l147
-126 62 0 c54 0 67 4 94 28 42 37 60 105 44 160 -10 32 -32 57 -110 124 -191
164 -198 169 -249 173 -27 2 -59 1 -72 -3z"/>
<path d="M5880 7578 c-19 -5 -60 -16 -90 -25 -97 -27 -123 -37 -200 -76 -212
-110 -376 -274 -487 -487 -35 -66 -55 -122 -83 -225 -25 -90 -30 -138 -30
-260 0 -123 6 -175 30 -260 5 -16 12 -48 16 -69 l7 -39 -44 7 c-203 30 -239
32 -341 20 -124 -15 -210 -32 -222 -45 -6 -5 -17 -9 -25 -9 -24 0 -202 -92
-265 -138 -150 -107 -285 -268 -351 -417 -61 -140 -60 -136 -81 -225 -25 -110
-23 -367 5 -470 11 -41 23 -86 26 -100 21 -77 98 -225 164 -313 43 -57 151
-164 220 -217 25 -19 86 -55 135 -80 84 -43 125 -60 216 -88 64 -20 219 -42
296 -42 77 0 235 24 266 41 10 5 24 9 31 9 7 0 48 14 91 30 86 33 80 34 142
-25 50 -49 135 -119 168 -140 17 -10 33 -22 36 -25 7 -7 42 -29 60 -37 8 -4
17 -9 20 -12 14 -16 133 -75 245 -121 309 -128 755 -140 1065 -28 47 17 95 33
108 35 12 3 22 9 22 13 0 4 13 10 28 13 16 3 53 20 83 38 175 105 208 126 249
158 44 35 100 84 126 109 18 17 36 15 96 -11 119 -53 207 -75 373 -92 61 -6
302 18 333 34 9 5 42 16 72 26 87 27 157 62 259 130 113 74 208 169 283 282
97 144 138 244 178 433 18 84 2 400 -21 425 -5 5 -9 17 -9 27 0 87 -140 337
-258 461 -122 127 -296 233 -462 282 -154 45 -299 62 -402 47 -174 -26 -162
-27 -192 12 -14 19 -26 39 -26 44 0 6 -3 12 -8 14 -4 2 -23 23 -42 48 -61 79
-135 158 -232 246 -52 48 -112 90 -250 177 -42 26 -58 43 -58 58 0 20 -22 104
-40 154 -23 64 -110 225 -151 278 -25 34 -82 96 -125 138 -116 111 -173 147
-379 239 -18 8 -65 21 -188 49 -57 13 -338 13 -387 -1z m389 -334 c75 -22 204
-77 221 -94 3 -3 24 -18 46 -33 71 -48 214 -218 214 -254 0 -17 -14 -16 -205
7 -130 16 -357 -1 -510 -39 -93 -23 -131 -33 -152 -42 -13 -5 -33 -13 -45 -18
-145 -58 -368 -189 -453 -265 -27 -25 -53 -42 -57 -40 -23 15 -3 193 33 289
61 162 170 296 327 398 54 35 129 65 217 87 95 24 288 26 364 4z m246 -704
c122 -13 225 -34 290 -60 11 -5 44 -16 73 -26 28 -10 52 -22 52 -26 0 -4 6 -8
13 -8 30 0 204 -106 281 -170 120 -100 238 -241 306 -365 50 -90 69 -112 117
-135 46 -21 83 -25 111 -11 122 61 405 72 522 20 14 -7 34 -15 45 -20 113 -46
148 -69 239 -157 109 -106 181 -240 216 -402 20 -95 5 -298 -29 -375 -28 -63
-53 -114 -68 -140 -24 -40 -112 -145 -143 -170 -106 -86 -258 -165 -319 -165
-15 0 -32 -5 -38 -11 -13 -13 -259 -15 -276 -1 -7 5 -30 12 -52 14 -41 6 -188
69 -215 93 -32 28 -92 55 -124 55 -53 0 -94 -27 -200 -134 -56 -56 -135 -123
-176 -150 -41 -27 -86 -57 -100 -66 -37 -24 -116 -60 -188 -85 -35 -13 -66
-25 -69 -29 -4 -3 -19 -6 -34 -6 -15 0 -30 -4 -34 -9 -3 -5 -36 -13 -73 -16
-37 -4 -76 -10 -87 -12 -60 -15 -210 -14 -315 2 -170 24 -267 57 -450 150 -84
43 -204 138 -316 251 -128 128 -150 141 -223 128 -20 -4 -52 -16 -71 -27 -139
-79 -190 -99 -320 -118 -70 -11 -237 -2 -246 12 -3 5 -17 9 -32 9 -33 0 -105
27 -154 57 -21 13 -40 23 -43 23 -16 0 -97 65 -154 123 -72 74 -120 146 -151
227 -12 30 -26 63 -31 72 -17 33 -28 222 -19 314 14 135 84 288 177 390 52 56
161 144 179 144 7 0 14 3 14 8 0 7 17 15 95 47 17 7 43 17 58 24 16 6 73 16
128 22 135 15 269 -2 358 -45 38 -18 145 -14 165 6 9 10 23 21 30 25 6 5 46
60 88 123 83 125 216 270 313 341 33 24 62 46 65 49 21 23 120 75 207 110 43
18 87 36 98 40 124 53 340 78 510 60z"/>
<path d="M7838 7485 c-4 -4 -21 -10 -40 -15 -138 -34 -206 -52 -223 -60 -11
-5 -33 -11 -49 -15 -41 -9 -84 -41 -91 -68 -3 -12 -11 -32 -17 -44 -8 -16 -8
-30 -1 -45 6 -13 15 -35 21 -50 14 -34 82 -78 120 -78 25 0 105 19 222 52 19
5 60 15 90 21 43 9 64 20 97 54 40 39 43 46 43 96 0 46 -4 59 -35 94 -19 22
-47 43 -62 46 -15 4 -37 9 -48 12 -11 4 -23 3 -27 0z"/>
<path d="M4285 7038 c-38 -5 -89 -11 -113 -14 -33 -4 -53 -15 -83 -45 -37 -37
-39 -43 -39 -99 0 -56 2 -61 42 -101 l42 -41 120 6 c297 14 335 23 375 92 38
64 20 141 -43 189 -30 23 -41 25 -132 24 -54 -1 -130 -6 -169 -11z"/>
</g>
</svg>
