<svg version="1.1" id="Layer_1" xmlns="http://www.w3.org/2000/svg" xmlns:xlink="http://www.w3.org/1999/xlink" x="0px" y="0px"
	 width="100%" viewBox="0 0 1290 1290" enable-background="new 0 0 1290 1290" xml:space="preserve">
<path fill="#FEFFFF" opacity="1.000000" stroke="none" 
	d="
M1291.000000,432.000000 
	C1291.000000,718.666626 1291.000000,1004.833252 1291.000000,1291.000000 
	C1076.000122,1291.000000 861.000183,1291.000000 646.000244,1291.000000 
	C431.000305,1291.000000 216.000336,1291.000000 1.000288,1291.000000 
	C1.000192,861.000183 1.000192,431.000397 1.000096,1.000461 
	C430.999725,1.000308 860.999451,1.000308 1290.999512,1.000154 
	C1291.000000,144.500000 1291.000000,288.000000 1291.000000,432.000000 
M170.645889,156.447083 
	C170.645889,156.447083 170.624451,156.405396 170.628784,157.416122 
	C170.748001,163.950241 170.867203,170.484375 170.625305,177.608795 
	C169.876770,178.246201 169.222580,179.081161 168.365158,179.490540 
	C159.532913,183.707550 150.752930,188.051102 141.783981,191.959137 
	C135.022888,194.905167 130.370026,199.864624 128.486237,206.625122 
	C125.625465,216.891754 123.747879,227.432373 121.540184,237.459061 
	C112.486664,241.846664 103.592995,245.251160 95.657066,250.193497 
	C79.708572,260.125885 74.306808,285.522034 84.656647,301.357239 
	C91.841835,312.350525 101.112129,320.544525 115.813507,318.742371 
	C117.111816,318.583221 118.649666,320.378265 120.076256,321.265656 
	C119.030586,322.691376 118.263748,324.539185 116.880074,325.453247 
	C114.168427,327.244598 110.725540,328.045288 108.260941,330.076019 
	C87.863045,346.883057 72.776596,367.285126 65.884659,393.234772 
	C61.675495,409.083160 62.811001,425.300354 62.049446,441.388611 
	C61.823383,446.164276 62.014572,450.959717 62.014572,455.975281 
	C63.665001,455.975281 64.987488,455.975342 66.309982,455.975311 
	C98.614319,455.974274 130.918655,455.965332 163.222977,455.986816 
	C165.876617,455.988586 168.530136,456.196960 170.835571,457.283478 
	C170.794952,458.782013 170.717972,460.280579 170.718857,461.779083 
	C170.854233,689.416260 170.968155,917.053528 171.251663,1144.690552 
	C171.261307,1152.431152 172.364731,1160.302979 174.011765,1167.884766 
	C179.388107,1192.633667 201.783859,1218.419189 236.631775,1218.250000 
	C415.759003,1217.380127 594.890808,1217.429932 774.021118,1217.221436 
	C868.675537,1217.111328 963.330078,1217.075928 1057.984497,1217.135498 
	C1076.384155,1217.147095 1090.603638,1208.947754 1102.082520,1195.451660 
	C1114.771240,1180.533081 1118.986084,1162.718140 1118.949341,1143.479126 
	C1118.647339,985.348755 1118.394897,827.218262 1118.208862,669.087646 
	C1118.085205,563.934631 1118.093750,458.781464 1118.058472,353.628387 
	C1118.057861,351.803528 1118.112061,349.958771 1118.373169,348.157013 
	C1119.743164,338.700958 1117.621338,330.598450 1110.369629,323.817627 
	C1061.843384,278.442200 1013.419983,232.956757 964.963928,187.506180 
	C927.924072,152.763748 890.783203,118.127731 853.949219,83.168411 
	C847.993530,77.515823 841.525208,75.347061 833.720398,75.383675 
	C788.402100,75.596291 743.083557,75.848228 697.764893,75.899979 
	C594.778259,76.017586 491.791534,76.024895 388.804840,76.092903 
	C386.815887,76.094215 384.827087,76.290909 382.328613,76.090019 
	C381.508301,76.022194 380.547974,76.209976 379.888397,75.848701 
	C367.409180,69.013084 353.687653,67.287392 339.907013,67.256851 
	C247.489487,67.051987 155.071243,67.157707 62.653248,67.162682 
	C60.524517,67.162796 58.395790,67.162689 55.366394,67.162689 
	C54.871754,77.291458 53.778366,86.897705 54.052612,96.464745 
	C54.871395,125.028389 67.944550,142.762177 94.846046,152.379074 
	C112.220276,158.590103 130.334274,160.977234 148.663055,162.097794 
	C154.441513,162.451050 160.239441,163.605179 164.583725,158.037201 
	C165.491272,156.874039 167.514542,156.581421 169.869400,156.177399 
	C170.154739,156.263397 170.440063,156.349396 170.645889,156.447083 
z"/>
<path fill="#5170C5" opacity="1.000000" stroke="none" 
	d="
M382.838196,76.396439 
	C384.827087,76.290909 386.815887,76.094215 388.804840,76.092903 
	C491.791534,76.024895 594.778259,76.017586 697.764893,75.899979 
	C743.083557,75.848228 788.402100,75.596291 833.720398,75.383675 
	C841.525208,75.347061 847.993530,77.515823 853.949219,83.168411 
	C890.783203,118.127731 927.924072,152.763748 964.963928,187.506180 
	C1013.419983,232.956757 1061.843384,278.442200 1110.369629,323.817627 
	C1117.621338,330.598450 1119.743164,338.700958 1118.373169,348.157013 
	C1118.112061,349.958771 1118.057861,351.803528 1118.058472,353.628387 
	C1118.093750,458.781464 1118.085205,563.934631 1118.208862,669.087646 
	C1118.394897,827.218262 1118.647339,985.348755 1118.949341,1143.479126 
	C1118.986084,1162.718140 1114.771240,1180.533081 1102.082520,1195.451660 
	C1090.603638,1208.947754 1076.384155,1217.147095 1057.984497,1217.135498 
	C963.330078,1217.075928 868.675537,1217.111328 774.021118,1217.221436 
	C594.890808,1217.429932 415.759003,1217.380127 236.631775,1218.250000 
	C201.783859,1218.419189 179.388107,1192.633667 174.011765,1167.884766 
	C172.364731,1160.302979 171.261307,1152.431152 171.251663,1144.690552 
	C170.968155,917.053528 170.854233,689.416260 170.718857,461.779083 
	C170.717972,460.280579 170.794952,458.782013 171.368286,456.634277 
	C183.275314,455.995239 194.649643,456.005371 205.943787,456.477600 
	C205.852142,459.105865 205.830017,461.272064 205.830734,463.438232 
	C205.906998,689.590515 205.972321,915.742859 206.134583,1141.895142 
	C206.138718,1147.667969 206.598465,1153.582520 207.907089,1159.183105 
	C210.751938,1171.358765 218.915222,1183.427246 236.828201,1183.291870 
	C328.304474,1182.600220 419.785797,1182.467773 511.265564,1182.371338 
	C692.420593,1182.180176 873.575806,1182.079712 1054.730713,1182.175171 
	C1066.966675,1182.181641 1074.984741,1176.736572 1079.253296,1166.247925 
	C1082.006104,1159.483887 1083.847290,1151.813354 1083.852295,1144.547729 
	C1083.915771,1051.901001 1083.461426,959.253967 1083.357666,866.606873 
	C1083.172607,701.450806 1083.141235,536.294678 1083.027954,371.138550 
	C1083.021606,361.799988 1084.083252,362.754852 1074.875000,362.752747 
	C1010.879028,362.738068 946.882874,362.659973 882.887207,362.790405 
	C859.861328,362.837341 843.266479,351.923096 831.255249,333.218689 
	C822.942749,320.274048 819.996582,305.780151 820.021484,290.455139 
	C820.114990,232.959000 820.006775,175.462540 819.972534,117.966187 
	C819.968262,110.797821 819.963684,110.787308 812.844666,110.789680 
	C736.849487,110.815048 660.854309,110.843460 584.859131,110.872162 
	C533.029114,110.891739 481.199005,110.889671 429.369293,111.023705 
	C427.404144,111.028778 425.442413,112.358223 423.207825,112.889557 
	C421.856384,110.846970 421.069366,108.713844 419.642578,107.173233 
	C414.832947,101.979874 409.592560,97.176834 404.909149,91.877876 
	C401.047485,87.508659 396.826019,85.550575 390.799530,85.764580 
	C385.435486,85.955055 383.229828,82.564713 382.838196,76.396439 
M895.507812,327.198883 
	C948.568054,327.198883 1001.628296,327.198883 1055.583252,327.198883 
	C1054.480103,325.809753 1053.847412,324.774139 1052.993164,323.975555 
	C1046.917847,318.295776 1040.772583,312.690826 1034.695557,307.012787 
	C1017.675598,291.110046 1000.720703,275.137451 983.661621,259.276947 
	C956.863647,234.362000 929.989563,209.528976 903.171082,184.636078 
	C888.542847,171.058105 873.973511,157.416718 859.336670,143.848114 
	C858.369568,142.951569 857.053467,142.431473 855.440369,141.459457 
	C855.174927,143.118927 854.938599,143.906387 854.938721,144.693802 
	C854.946106,194.328949 854.879211,243.964478 855.084106,293.598877 
	C855.120972,302.529663 857.546692,311.104706 863.221130,318.281128 
	C867.474731,323.660583 872.937012,327.475128 880.079163,327.689850 
	C884.881042,327.834229 889.700745,327.383698 895.507812,327.198883 
z"/>
<path fill="#103673" opacity="1.000000" stroke="none" 
	d="
M382.583405,76.243225 
	C383.229828,82.564713 385.435486,85.955055 390.799530,85.764580 
	C396.826019,85.550575 401.047485,87.508659 404.909149,91.877876 
	C409.592560,97.176834 414.832947,101.979874 419.642578,107.173233 
	C421.069366,108.713844 421.856384,110.846970 423.412689,113.190651 
	C427.187775,122.669777 432.493164,131.481369 433.345825,140.704590 
	C434.871307,157.205795 433.716217,173.955017 433.666687,190.600540 
	C433.665222,191.091156 433.445435,191.577881 433.412079,192.072128 
	C432.921570,199.340973 431.941040,206.620407 432.079895,213.878159 
	C432.308502,225.828720 433.763824,237.762909 433.823334,249.708359 
	C434.041656,293.516052 434.099640,337.327301 433.712769,381.132782 
	C433.639130,389.471619 432.488342,398.226654 429.700439,406.026917 
	C423.941772,422.139069 413.474731,434.887665 397.859222,442.800446 
	C379.185730,452.262848 359.178741,455.870483 338.449707,455.920685 
	C294.307983,456.027557 250.165909,455.992462 206.023972,456.015503 
	C194.649643,456.005371 183.275314,455.995239 171.542343,456.147217 
	C168.530136,456.196960 165.876617,455.988586 163.222977,455.986816 
	C130.918655,455.965332 98.614319,455.974274 66.309982,455.975311 
	C64.987488,455.975342 63.665001,455.975281 62.014572,455.975281 
	C62.014572,450.959717 61.823383,446.164276 62.049446,441.388611 
	C62.811001,425.300354 61.675495,409.083160 65.884659,393.234772 
	C72.776596,367.285126 87.863045,346.883057 108.260941,330.076019 
	C110.725540,328.045288 114.168427,327.244598 116.880074,325.453247 
	C118.263748,324.539185 119.030586,322.691376 120.076263,321.265656 
	C118.649666,320.378265 117.111816,318.583221 115.813507,318.742371 
	C101.112129,320.544525 91.841835,312.350525 84.656647,301.357239 
	C74.306808,285.522034 79.708572,260.125885 95.657066,250.193497 
	C103.592995,245.251160 112.486664,241.846664 121.540184,237.459061 
	C123.747879,227.432373 125.625465,216.891754 128.486237,206.625122 
	C130.370026,199.864624 135.022888,194.905167 141.783981,191.959137 
	C150.752930,188.051102 159.532913,183.707550 168.365158,179.490540 
	C169.222580,179.081161 169.876770,178.246201 171.156372,177.295837 
	C175.006851,174.607254 178.426254,172.357727 181.621094,169.824936 
	C185.868668,166.457504 186.037201,162.794815 182.400208,158.810776 
	C178.826172,154.895691 174.402603,153.929016 169.023651,155.887634 
	C167.514542,156.581421 165.491272,156.874039 164.583725,158.037201 
	C160.239441,163.605179 154.441513,162.451050 148.663055,162.097794 
	C130.334274,160.977234 112.220276,158.590103 94.846046,152.379074 
	C67.944550,142.762177 54.871395,125.028389 54.052612,96.464745 
	C53.778366,86.897705 54.871754,77.291458 55.366394,67.162689 
	C58.395790,67.162689 60.524517,67.162796 62.653248,67.162682 
	C155.071243,67.157707 247.489487,67.051987 339.907013,67.256851 
	C353.687653,67.287392 367.409180,69.013084 379.888397,75.848701 
	C380.547974,76.209976 381.508301,76.022194 382.583405,76.243225 
M77.678307,131.811890 
	C85.100479,136.129135 92.106110,141.548157 100.028168,144.543167 
	C118.749733,151.621017 138.594788,153.495575 158.458511,153.879471 
	C181.280289,154.320572 204.116074,154.036438 226.945786,154.066833 
	C228.502731,154.068909 230.059692,154.067093 231.616638,154.067093 
	C229.828232,155.860153 227.954193,156.840775 226.040802,157.737427 
	C202.385315,168.822433 178.652725,179.746155 155.090042,191.024841 
	C139.993866,198.250870 131.174347,209.740463 132.082535,227.346512 
	C132.381393,233.140076 132.129593,238.962021 132.129593,244.852753 
	C129.635620,245.364777 127.520325,245.789001 125.409431,246.234116 
	C114.361977,248.563614 104.630898,253.242752 97.214661,262.048096 
	C83.226395,278.656494 90.077919,303.630219 110.624176,310.509735 
	C114.056458,311.658936 117.813385,311.799011 121.336426,312.724640 
	C129.491531,314.867157 131.582535,322.436249 125.663635,328.328400 
	C123.905037,330.079041 121.852615,331.554352 119.841621,333.028717 
	C81.118294,361.418182 68.674881,400.608978 73.545471,447.181427 
	C74.857124,447.181427 76.654503,447.180542 78.451881,447.181549 
	C164.773651,447.229309 251.096573,447.509460 337.415955,447.078278 
	C350.571930,447.012543 364.030884,444.883636 376.794922,441.571259 
	C407.226837,433.673828 423.202667,411.821564 423.214935,380.493408 
	C423.245453,302.503632 423.281738,224.513855 423.347137,146.524124 
	C423.357361,134.330139 420.149811,123.070709 413.193207,113.111252 
	C395.215668,87.373528 369.471893,76.144257 339.002167,76.014908 
	C249.514893,75.635017 160.024979,75.878677 70.536087,75.891403 
	C68.940475,75.891624 67.344887,76.057091 65.690506,76.148712 
	C65.236916,78.849380 64.613419,81.117928 64.509560,83.410019 
	C63.726757,100.685638 65.131638,117.412933 77.678307,131.811890 
z"/>
<path fill="#4C6AB9" opacity="1.000000" stroke="none" 
	d="
M169.446533,156.032516 
	C174.402603,153.929016 178.826172,154.895691 182.400208,158.810776 
	C186.037201,162.794815 185.868668,166.457504 181.621094,169.824936 
	C178.426254,172.357727 175.006851,174.607254 171.336914,177.000702 
	C170.867203,170.484375 170.748001,163.950241 170.636215,156.946167 
	C170.643646,156.476227 170.725372,156.435379 170.725372,156.435379 
	C170.440063,156.349396 170.154739,156.263397 169.446533,156.032516 
z"/>
<path fill="#103673" opacity="1.000000" stroke="none" 
	d="
M170.685638,156.441223 
	C170.725372,156.435379 170.643646,156.476227 170.634048,156.440811 
	C170.624451,156.405396 170.645889,156.447083 170.685638,156.441223 
z"/>
<path fill="#DBE4F7" opacity="1.000000" stroke="none" 
	d="
M205.943787,456.477600 
	C250.165909,455.992462 294.307983,456.027557 338.449707,455.920685 
	C359.178741,455.870483 379.185730,452.262848 397.859222,442.800446 
	C413.474731,434.887665 423.941772,422.139069 429.700439,406.026917 
	C432.488342,398.226654 433.639130,389.471619 433.712769,381.132782 
	C434.099640,337.327301 434.041656,293.516052 433.823334,249.708359 
	C433.763824,237.762909 432.308502,225.828720 432.079895,213.878159 
	C431.941040,206.620407 432.921570,199.340973 433.412079,192.072128 
	C433.445435,191.577881 433.665222,191.091156 433.666687,190.600540 
	C433.716217,173.955017 434.871307,157.205795 433.345825,140.704590 
	C432.493164,131.481369 427.187775,122.669777 423.683960,113.371613 
	C425.442413,112.358223 427.404144,111.028778 429.369293,111.023705 
	C481.199005,110.889671 533.029114,110.891739 584.859131,110.872162 
	C660.854309,110.843460 736.849487,110.815048 812.844666,110.789680 
	C819.963684,110.787308 819.968262,110.797821 819.972534,117.966187 
	C820.006775,175.462540 820.114990,232.959000 820.021484,290.455139 
	C819.996582,305.780151 822.942749,320.274048 831.255249,333.218689 
	C843.266479,351.923096 859.861328,362.837341 882.887207,362.790405 
	C946.882874,362.659973 1010.879028,362.738068 1074.875000,362.752747 
	C1084.083252,362.754852 1083.021606,361.799988 1083.027954,371.138550 
	C1083.141235,536.294678 1083.172607,701.450806 1083.357666,866.606873 
	C1083.461426,959.253967 1083.915771,1051.901001 1083.852295,1144.547729 
	C1083.847290,1151.813354 1082.006104,1159.483887 1079.253296,1166.247925 
	C1074.984741,1176.736572 1066.966675,1182.181641 1054.730713,1182.175171 
	C873.575806,1182.079712 692.420593,1182.180176 511.265564,1182.371338 
	C419.785797,1182.467773 328.304474,1182.600220 236.828201,1183.291870 
	C218.915222,1183.427246 210.751938,1171.358765 207.907089,1159.183105 
	C206.598465,1153.582520 206.138718,1147.667969 206.134583,1141.895142 
	C205.972321,915.742859 205.906998,689.590515 205.830734,463.438232 
	C205.830017,461.272064 205.852142,459.105865 205.943787,456.477600 
M500.402771,660.998352 
	C501.582275,665.799622 502.761810,670.600891 504.117035,676.117371 
	C502.147308,675.814026 500.730530,675.678711 499.352264,675.370972 
	C482.296661,671.562866 465.175903,671.588928 448.517670,676.654053 
	C421.269745,684.939087 399.453339,700.988220 384.555634,725.491028 
	C370.532959,748.554688 365.742218,773.731506 370.658386,800.273499 
	C374.383850,820.386658 383.016235,838.350708 396.893768,853.737427 
	C416.354370,875.314331 440.881439,886.573547 469.323395,889.577209 
	C486.671906,891.409363 503.450195,888.008179 519.450806,881.162048 
	C523.700134,879.343811 526.674500,879.697388 529.987244,883.219604 
	C534.067627,887.557983 538.681580,891.483398 543.457520,895.063660 
	C566.341614,912.218201 591.680237,923.349060 620.289856,927.118408 
	C640.534241,929.785645 660.502380,929.148926 680.192261,924.185181 
	C707.605591,917.274292 731.674133,903.939392 752.599182,884.864563 
	C753.854858,883.719849 757.017456,883.296448 758.561890,884.045166 
	C780.657410,894.756042 803.936768,897.260559 827.620483,892.439148 
	C849.046387,888.077209 867.856567,877.709106 883.137390,861.816162 
	C896.861084,847.542725 906.483643,830.826843 911.245422,811.448120 
	C916.050171,791.894409 915.166016,772.428650 909.186829,753.419678 
	C902.925842,733.514709 891.659119,716.567871 875.513367,703.145813 
	C860.236328,690.445862 842.731140,682.530945 823.117249,679.147095 
	C810.519897,676.973755 797.960999,677.105835 785.473389,679.438049 
	C781.172302,680.241333 779.170044,678.522217 777.046997,675.288269 
	C764.076416,655.530884 747.673218,639.118469 727.319458,627.106812 
	C720.681641,623.189697 716.906555,618.627686 715.000122,611.155151 
	C707.680420,582.464600 690.493774,560.466797 665.259583,545.843079 
	C638.397400,530.275879 609.396973,525.455322 578.864868,534.932251 
	C537.708496,547.706848 512.221558,575.268982 501.348969,616.584412 
	C497.577209,630.916931 497.877991,645.550476 500.402771,660.998352 
M456.137329,481.884766 
	C455.363342,488.115509 458.102386,492.862457 462.595978,496.768646 
	C469.994934,503.200470 477.356140,509.683624 484.941040,515.891235 
	C492.065277,521.721924 501.130371,521.007751 506.918915,514.529602 
	C512.572449,508.202515 512.528015,497.895721 506.356201,492.367798 
	C498.686798,485.498657 490.810760,478.840057 482.758667,472.423401 
	C471.825867,463.711182 460.249969,467.583069 456.137329,481.884766 
M716.857788,492.360107 
	C722.927612,485.302521 729.070984,478.306580 735.045349,471.169098 
	C740.427124,464.739716 740.426331,454.439697 735.240784,449.211395 
	C729.369507,443.291534 719.332336,442.159485 714.020874,447.819489 
	C705.619751,456.771881 697.675354,466.195282 690.086121,475.850494 
	C685.839539,481.253113 687.399963,489.557617 692.082336,494.628265 
	C697.539124,500.537628 709.056335,502.609039 716.857788,492.360107 
M449.594910,615.953125 
	C450.093933,615.940247 450.593170,615.932800 451.091949,615.913635 
	C460.783600,615.541382 467.698486,607.970703 466.844788,598.668274 
	C466.019318,589.673523 457.790344,583.679810 448.408966,584.727478 
	C439.006134,585.777588 429.552032,586.394714 420.110870,587.067810 
	C410.813812,587.730652 403.887939,595.225952 404.379303,604.295227 
	C404.797455,612.013306 413.490051,619.280334 421.941711,618.626587 
	C430.872803,617.935669 439.776489,616.891052 449.594910,615.953125 
M796.072510,570.731506 
	C803.342224,564.776978 805.219727,557.995728 801.639221,550.624756 
	C798.384155,543.923584 790.875061,540.339111 783.187927,542.246826 
	C773.378601,544.681274 763.596191,547.258362 753.902161,550.113403 
	C744.515503,552.877808 740.106018,560.289612 742.113892,569.105103 
	C743.936279,577.106628 752.610596,582.663452 761.520325,580.547302 
	C772.926270,577.838318 784.132812,574.289429 796.072510,570.731506 
M589.180176,413.596741 
	C581.356384,416.680176 577.624207,422.822876 578.318787,431.190247 
	C579.060608,440.127533 579.596130,449.082520 580.401672,458.013550 
	C580.637634,460.629303 581.164124,463.316345 582.117615,465.751373 
	C584.846924,472.721497 592.064331,476.212341 600.160522,474.784088 
	C606.206482,473.717529 612.198120,467.422455 611.931458,461.028290 
	C611.440796,449.263123 610.700745,437.462097 609.124207,425.803162 
	C607.865662,416.494965 599.337769,411.492737 589.180176,413.596741 
z"/>
<path fill="#BCD1F3" opacity="1.000000" stroke="none" 
	d="
M895.010132,327.199097 
	C889.700745,327.383698 884.881042,327.834229 880.079163,327.689850 
	C872.937012,327.475128 867.474731,323.660583 863.221130,318.281128 
	C857.546692,311.104706 855.120972,302.529663 855.084106,293.598877 
	C854.879211,243.964478 854.946106,194.328949 854.938721,144.693802 
	C854.938599,143.906387 855.174927,143.118927 855.440369,141.459457 
	C857.053467,142.431473 858.369568,142.951569 859.336670,143.848114 
	C873.973511,157.416718 888.542847,171.058105 903.171082,184.636078 
	C929.989563,209.528976 956.863647,234.362000 983.661621,259.276947 
	C1000.720703,275.137451 1017.675598,291.110046 1034.695557,307.012787 
	C1040.772583,312.690826 1046.917847,318.295776 1052.993164,323.975555 
	C1053.847412,324.774139 1054.480103,325.809753 1055.583252,327.198883 
	C1001.628296,327.198883 948.568054,327.198883 895.010132,327.199097 
z"/>
<path fill="#F9F8FB" opacity="1.000000" stroke="none" 
	d="
M77.425339,131.561066 
	C65.131638,117.412933 63.726757,100.685638 64.509560,83.410019 
	C64.613419,81.117928 65.236916,78.849380 65.690506,76.148712 
	C67.344887,76.057091 68.940475,75.891624 70.536087,75.891403 
	C160.024979,75.878677 249.514893,75.635017 339.002167,76.014908 
	C369.471893,76.144257 395.215668,87.373528 413.193207,113.111252 
	C420.149811,123.070709 423.357361,134.330139 423.347137,146.524124 
	C423.281738,224.513855 423.245453,302.503632 423.214935,380.493408 
	C423.202667,411.821564 407.226837,433.673828 376.794922,441.571259 
	C364.030884,444.883636 350.571930,447.012543 337.415955,447.078278 
	C251.096573,447.509460 164.773651,447.229309 78.451881,447.181549 
	C76.654503,447.180542 74.857124,447.181427 73.545471,447.181427 
	C68.674881,400.608978 81.118294,361.418182 119.841621,333.028717 
	C121.852615,331.554352 123.905037,330.079041 125.663635,328.328400 
	C131.582535,322.436249 129.491531,314.867157 121.336426,312.724640 
	C117.813385,311.799011 114.056458,311.658936 110.624176,310.509735 
	C90.077919,303.630219 83.226395,278.656494 97.214661,262.048096 
	C104.630898,253.242752 114.361977,248.563614 125.409431,246.234116 
	C127.520325,245.789001 129.635620,245.364777 132.129593,244.852753 
	C132.129593,238.962021 132.381393,233.140076 132.082535,227.346512 
	C131.174347,209.740463 139.993866,198.250870 155.090042,191.024841 
	C178.652725,179.746155 202.385315,168.822433 226.040802,157.737427 
	C227.954193,156.840775 229.828232,155.860153 231.616638,154.067093 
	C230.059692,154.067093 228.502731,154.068909 226.945786,154.066833 
	C204.116074,154.036438 181.280289,154.320572 158.458511,153.879471 
	C138.594788,153.495575 118.749733,151.621017 100.028168,144.543167 
	C92.106110,141.548157 85.100479,136.129135 77.425339,131.561066 
M96.738670,421.749390 
	C96.738670,421.749390 96.618347,421.678467 96.154938,421.771027 
	C95.846268,421.928528 95.675385,422.179749 95.615486,422.609192 
	C95.615486,422.609192 95.528648,422.627197 94.903648,422.828979 
	C91.791344,426.028168 88.679039,429.227356 85.462090,432.543854 
	C85.462090,432.543854 85.358925,432.662445 84.992691,432.798370 
	C84.763046,432.960419 84.640266,433.181763 84.565231,433.561646 
	C84.565231,433.561646 84.471634,433.629456 83.883812,433.956146 
	C82.856216,435.297546 81.828621,436.638947 80.158997,438.818420 
	C82.885925,438.818420 84.348160,438.818512 85.810394,438.818451 
	C168.605286,438.815125 251.400391,438.899200 334.194763,438.691772 
	C343.955414,438.667328 353.804169,437.600616 363.445435,436.008179 
	C373.786133,434.300293 383.836060,431.166412 392.421234,424.467529 
	C392.421234,424.467529 392.523163,424.434418 393.091675,424.248657 
	C393.828583,423.619171 394.565460,422.989716 395.136932,422.153870 
	C395.136932,422.153870 395.341309,422.321716 395.829193,422.208954 
	C395.999084,421.934631 396.168976,421.660309 396.283386,421.250519 
	C396.283386,421.250519 396.401764,421.336700 397.023285,421.121490 
	C400.015472,417.080536 403.007660,413.039612 406.241486,408.794922 
	C406.241486,408.794922 406.304688,408.485260 406.848633,408.046448 
	C410.881287,399.812927 413.309509,391.226135 412.746399,381.029785 
	C412.746155,374.705444 412.745911,368.381104 412.955048,361.405548 
	C411.476532,358.178589 410.658447,359.266113 409.595795,361.756775 
	C407.741974,366.101654 405.629211,370.336060 403.704193,374.750610 
	C403.704193,374.750610 403.569122,374.673523 403.018921,374.975128 
	C401.999359,376.307953 400.979797,377.640778 400.000000,379.000336 
	C400.000000,379.000336 399.973877,378.960388 399.338104,379.152039 
	C397.201233,381.081177 395.064362,383.010284 392.985748,385.004364 
	C392.985748,385.004364 392.948639,384.925781 392.224762,385.016815 
	C387.588715,386.661072 383.062317,389.130310 378.291992,389.764252 
	C370.304108,390.825806 362.164032,390.906952 354.081818,391.049133 
	C345.219971,391.205048 336.698853,392.516846 328.978912,396.971069 
	C328.978912,396.971069 328.820770,396.740082 328.135071,396.779144 
	C327.106689,397.238464 326.078308,397.697815 324.352875,398.114166 
	C323.889038,398.146637 323.425171,398.179108 322.369537,397.843109 
	C320.725983,397.078827 319.134857,396.162354 317.430267,395.575348 
	C307.655151,392.209137 297.853119,388.921112 287.404602,385.297607 
	C286.926483,385.249603 286.448395,385.201630 285.304352,384.802063 
	C271.851807,382.963043 258.399261,381.124023 244.304260,379.145233 
	C243.867996,379.164246 243.431747,379.183289 242.224167,378.914978 
	C229.498047,378.997406 216.771912,379.079803 203.299561,379.075317 
	C202.556000,379.157318 201.812439,379.239319 200.200119,379.146271 
	C195.425156,379.772949 190.628555,380.268127 185.879120,381.049866 
	C168.450577,383.918610 151.509247,388.417755 135.614685,396.538818 
	C135.614685,396.538818 135.517319,396.554199 134.822723,396.712585 
	C131.985092,398.193359 129.147461,399.674133 126.164993,401.100220 
	C126.164993,401.100220 126.105415,401.243134 125.520493,401.245117 
	C124.912056,401.698792 124.303627,402.152496 123.951057,402.910217 
	C123.951057,402.910217 123.669731,402.629578 123.003288,402.761475 
	C121.319969,403.829559 119.636650,404.897614 117.992302,406.004456 
	C117.992302,406.004456 117.971939,405.954041 117.319473,406.041901 
	C116.124573,406.925323 114.929665,407.808746 114.000305,408.998779 
	C114.000305,408.998779 113.733810,408.693481 113.100418,408.792755 
	C111.945244,409.675140 110.790070,410.557526 109.586777,411.530853 
	C109.586777,411.530853 109.485298,411.547913 108.899734,411.700897 
	C108.150635,412.344025 107.401527,412.987152 106.830170,414.023285 
	C106.830170,414.023285 106.631058,413.639435 105.970909,413.797089 
	C103.221428,416.090698 100.471947,418.384277 97.913109,420.922119 
	C97.913109,420.922119 97.691994,420.705048 97.208778,420.820709 
	C96.894791,420.997955 96.717567,421.265747 96.738670,421.749390 
M198.008057,322.518341 
	C194.585617,340.460327 181.894867,349.427399 165.754013,353.506714 
	C155.568695,356.080872 144.721451,356.257690 134.134857,356.972992 
	C115.905022,358.204651 101.391640,365.397461 92.449516,381.892212 
	C86.455231,392.949310 85.475433,405.228760 83.813446,418.286438 
	C85.173233,417.259918 85.781929,416.766205 86.424026,416.320709 
	C96.801285,409.121033 106.869705,401.414246 117.633598,394.847656 
	C135.735779,383.804230 156.229950,378.771179 176.372818,372.948883 
	C199.453629,366.277374 213.919434,346.787811 213.835526,322.798187 
	C213.775482,305.632416 213.739777,288.466522 213.728607,271.300659 
	C213.711899,245.634277 213.685486,219.967636 213.824463,194.301971 
	C213.833221,192.685898 214.872513,190.232162 216.094238,189.706528 
	C217.281113,189.195908 219.506653,190.381042 220.949448,191.322220 
	C224.838760,193.859451 228.687393,196.500961 232.272369,199.442123 
	C233.699814,200.613205 235.282455,202.678604 235.287933,204.341812 
	C235.449188,253.340775 235.448227,302.340485 235.312943,351.339569 
	C235.307892,353.170624 234.079391,355.347351 232.769699,356.758514 
	C229.231323,360.571014 225.341003,364.056854 220.882919,368.354218 
	C222.770187,368.498444 223.388565,368.596375 224.005020,368.585449 
	C247.813187,368.163818 271.170807,371.380554 294.175446,377.349976 
	C299.895813,378.834259 303.744537,375.979553 303.744537,369.993286 
	C303.744781,315.827179 303.857727,261.660492 303.581207,207.495804 
	C303.550079,201.401108 305.336823,197.818130 309.859283,196.332581 
	C315.266632,198.518234 319.897766,200.390137 325.343445,202.591278 
	C325.343445,262.973938 325.343445,324.351624 325.343445,384.916840 
	C334.686462,384.029480 343.536011,383.016998 352.413361,382.410522 
	C357.722656,382.047821 363.123474,382.760315 368.395050,382.183746 
	C373.619904,381.612213 378.965759,380.631897 383.845184,378.755798 
	C392.128693,375.570709 398.518982,367.443695 399.434998,360.387238 
	C382.082581,367.394806 364.701019,353.225677 365.154236,334.734497 
	C366.338165,286.430664 365.554596,238.078598 365.555511,189.745758 
	C365.555573,187.278473 365.555511,184.811172 365.555511,181.986206 
	C350.497498,182.735031 337.352417,178.140381 325.217773,170.542526 
	C314.128296,182.788528 300.644257,184.874527 285.716156,181.210190 
	C270.845093,177.559875 259.938141,168.706955 253.011292,155.145020 
	C221.751648,169.774872 190.975082,184.076691 160.297882,198.588547 
	C148.815552,204.020248 142.079605,212.635040 142.730850,226.149780 
	C143.169250,235.247559 142.814346,244.383591 142.814346,253.135666 
	C135.872025,254.124115 129.351746,254.458313 123.156052,256.053406 
	C108.472481,259.833740 99.655815,271.232697 100.844635,283.937866 
	C101.892349,295.135010 112.352097,304.428070 120.994598,303.058563 
	C121.305618,299.244812 120.301987,294.647705 122.150879,292.445953 
	C125.847809,288.043518 131.660660,288.320923 137.001297,289.989929 
	C141.784576,291.484711 143.024597,295.256775 142.833450,299.839691 
	C142.729370,302.335358 142.677353,304.847504 142.835129,307.337433 
	C143.768585,322.069397 138.762939,333.661194 125.663139,341.425354 
	C122.322037,343.405609 119.668518,346.545990 116.841751,349.028107 
	C128.098831,348.322815 138.844742,347.650085 149.590591,346.976166 
	C174.126221,345.437439 186.860001,332.004639 186.868210,307.727966 
	C186.878952,275.895447 186.933060,244.062943 186.960831,212.230423 
	C186.971130,200.423965 186.961197,200.423950 198.631012,198.072983 
	C198.679550,225.870651 198.786072,253.668381 198.751648,281.465942 
	C198.734970,294.937469 198.454025,308.408691 198.008057,322.518341 
M378.215240,240.499954 
	C378.216461,271.655365 378.208649,302.810760 378.223999,333.966156 
	C378.229065,344.307709 384.994019,350.894928 395.549500,350.909576 
	C406.267731,350.924469 412.889587,344.509064 412.890839,334.047699 
	C412.898346,271.903015 412.887177,209.758301 412.900513,147.613602 
	C412.903351,134.453659 408.940643,122.644081 400.523987,112.544373 
	C384.257111,93.024673 362.781921,84.740540 337.902008,84.711815 
	C252.099197,84.612770 166.296158,84.684402 80.493202,84.691010 
	C78.876724,84.691132 77.260254,84.691025 75.110329,84.691025 
	C75.110329,88.832817 74.989815,92.456970 75.129898,96.071022 
	C76.036430,119.459290 85.787598,131.741180 108.315048,138.194839 
	C124.601868,142.860672 141.257095,145.027451 158.130920,145.101151 
	C203.113708,145.297607 248.097778,145.186905 293.080902,145.331604 
	C297.868958,145.347031 302.671631,146.114380 307.436890,146.759323 
	C316.364532,147.967621 322.376648,154.497162 329.362732,159.173370 
	C342.020111,167.645691 355.353638,173.391647 371.055237,170.990982 
	C373.278900,170.651001 375.521698,170.435898 378.215271,170.106842 
	C378.215271,193.581009 378.215271,216.540466 378.215240,240.499954 
z"/>
<path fill="#5170C5" opacity="1.000000" stroke="none" 
	d="
M500.319305,660.569214 
	C497.877991,645.550476 497.577209,630.916931 501.348969,616.584412 
	C512.221558,575.268982 537.708496,547.706848 578.864868,534.932251 
	C609.396973,525.455322 638.397400,530.275879 665.259583,545.843079 
	C690.493774,560.466797 707.680420,582.464600 715.000122,611.155151 
	C716.906555,618.627686 720.681641,623.189697 727.319458,627.106812 
	C747.673218,639.118469 764.076416,655.530884 777.046997,675.288269 
	C779.170044,678.522217 781.172302,680.241333 785.473389,679.438049 
	C797.960999,677.105835 810.519897,676.973755 823.117249,679.147095 
	C842.731140,682.530945 860.236328,690.445862 875.513367,703.145813 
	C891.659119,716.567871 902.925842,733.514709 909.186829,753.419678 
	C915.166016,772.428650 916.050171,791.894409 911.245422,811.448120 
	C906.483643,830.826843 896.861084,847.542725 883.137390,861.816162 
	C867.856567,877.709106 849.046387,888.077209 827.620483,892.439148 
	C803.936768,897.260559 780.657410,894.756042 758.561890,884.045166 
	C757.017456,883.296448 753.854858,883.719849 752.599182,884.864563 
	C731.674133,903.939392 707.605591,917.274292 680.192261,924.185181 
	C660.502380,929.148926 640.534241,929.785645 620.289856,927.118408 
	C591.680237,923.349060 566.341614,912.218201 543.457520,895.063660 
	C538.681580,891.483398 534.067627,887.557983 529.987244,883.219604 
	C526.674500,879.697388 523.700134,879.343811 519.450806,881.162048 
	C503.450195,888.008179 486.671906,891.409363 469.323395,889.577209 
	C440.881439,886.573547 416.354370,875.314331 396.893768,853.737427 
	C383.016235,838.350708 374.383850,820.386658 370.658386,800.273499 
	C365.742218,773.731506 370.532959,748.554688 384.555634,725.491028 
	C399.453339,700.988220 421.269745,684.939087 448.517670,676.654053 
	C465.175903,671.588928 482.296661,671.562866 499.352264,675.370972 
	C500.730530,675.678711 502.147308,675.814026 504.117035,676.117371 
	C502.761810,670.600891 501.582275,665.799622 500.319305,660.569214 
M632.615601,637.678345 
	C611.620667,639.209656 592.193970,645.654297 574.524414,656.991333 
	C555.858032,668.967896 540.869568,684.615356 529.999146,704.019897 
	C525.509338,712.034485 516.749329,717.625732 505.590363,713.406189 
	C492.207764,708.345764 478.423889,706.267822 463.987823,709.536926 
	C434.346161,716.249390 414.387909,733.766174 406.597748,762.976685 
	C399.248962,790.532043 406.544952,815.083923 427.510529,834.848267 
	C441.535889,848.070007 458.646637,854.668030 477.806213,854.827026 
	C492.010559,854.944824 505.314240,850.896057 517.444641,843.122681 
	C527.466858,836.700195 536.224792,837.927429 543.706543,846.740723 
	C564.164062,870.838501 589.510986,886.540222 620.866211,891.843079 
	C637.280945,894.619141 653.799866,894.368042 669.980286,890.503235 
	C697.479187,883.934875 720.544434,869.791321 739.107361,848.353394 
	C745.441284,841.038574 754.886230,840.109314 762.876465,845.617310 
	C780.622131,857.850159 799.982605,862.319153 821.196045,857.557312 
	C840.047485,853.325684 855.448608,843.403137 866.132751,827.447510 
	C884.535217,799.965271 883.485168,769.039490 864.307251,742.076721 
	C847.853699,718.944214 817.932556,707.885132 789.169617,714.535828 
	C783.834656,715.769348 778.605957,717.858704 773.216125,718.368958 
	C764.251770,719.217590 759.351624,713.394409 754.782043,706.393921 
	C747.991333,695.990845 741.304810,685.178101 732.707520,676.359253 
	C705.699646,648.655090 672.255188,636.136047 632.615601,637.678345 
M535.868469,622.492859 
	C534.972473,629.274658 534.076477,636.056458 533.180542,642.838257 
	C575.342712,608.788452 621.988708,595.828674 674.903870,605.627136 
	C664.885254,582.558105 638.078918,564.227661 607.395386,565.446777 
	C572.312866,566.840515 544.361084,590.340393 535.868469,622.492859 
z"/>
<path fill="#5371C5" opacity="1.000000" stroke="none" 
	d="
M456.160950,481.466736 
	C460.249969,467.583069 471.825867,463.711182 482.758667,472.423401 
	C490.810760,478.840057 498.686798,485.498657 506.356201,492.367798 
	C512.528015,497.895721 512.572449,508.202515 506.918915,514.529602 
	C501.130371,521.007751 492.065277,521.721924 484.941040,515.891235 
	C477.356140,509.683624 469.994934,503.200470 462.595978,496.768646 
	C458.102386,492.862457 455.363342,488.115509 456.160950,481.466736 
z"/>
<path fill="#5371C5" opacity="1.000000" stroke="none" 
	d="
M716.625000,492.626648 
	C709.056335,502.609039 697.539124,500.537628 692.082336,494.628265 
	C687.399963,489.557617 685.839539,481.253113 690.086121,475.850494 
	C697.675354,466.195282 705.619751,456.771881 714.020874,447.819489 
	C719.332336,442.159485 729.369507,443.291534 735.240784,449.211395 
	C740.426331,454.439697 740.427124,464.739716 735.045349,471.169098 
	C729.070984,478.306580 722.927612,485.302521 716.625000,492.626648 
z"/>
<path fill="#5371C5" opacity="1.000000" stroke="none" 
	d="
M449.143555,615.977051 
	C439.776489,616.891052 430.872803,617.935669 421.941711,618.626587 
	C413.490051,619.280334 404.797455,612.013306 404.379303,604.295227 
	C403.887939,595.225952 410.813812,587.730652 420.110870,587.067810 
	C429.552032,586.394714 439.006134,585.777588 448.408966,584.727478 
	C457.790344,583.679810 466.019318,589.673523 466.844788,598.668274 
	C467.698486,607.970703 460.783600,615.541382 451.091949,615.913635 
	C450.593170,615.932800 450.093933,615.940247 449.143555,615.977051 
z"/>
<path fill="#5371C5" opacity="1.000000" stroke="none" 
	d="
M795.748901,570.916992 
	C784.132812,574.289429 772.926270,577.838318 761.520325,580.547302 
	C752.610596,582.663452 743.936279,577.106628 742.113892,569.105103 
	C740.106018,560.289612 744.515503,552.877808 753.902161,550.113403 
	C763.596191,547.258362 773.378601,544.681274 783.187927,542.246826 
	C790.875061,540.339111 798.384155,543.923584 801.639221,550.624756 
	C805.219727,557.995728 803.342224,564.776978 795.748901,570.916992 
z"/>
<path fill="#5371C5" opacity="1.000000" stroke="none" 
	d="
M589.529419,413.450012 
	C599.337769,411.492737 607.865662,416.494965 609.124207,425.803162 
	C610.700745,437.462097 611.440796,449.263123 611.931458,461.028290 
	C612.198120,467.422455 606.206482,473.717529 600.160522,474.784088 
	C592.064331,476.212341 584.846924,472.721497 582.117615,465.751373 
	C581.164124,463.316345 580.637634,460.629303 580.401672,458.013550 
	C579.596130,449.082520 579.060608,440.127533 578.318787,431.190247 
	C577.624207,422.822876 581.356384,416.680176 589.529419,413.450012 
z"/>
<path fill="#053072" opacity="1.000000" stroke="none" 
	d="
M198.623718,197.162582 
	C186.961197,200.423950 186.971130,200.423965 186.960831,212.230423 
	C186.933060,244.062943 186.878952,275.895447 186.868210,307.727966 
	C186.860001,332.004639 174.126221,345.437439 149.590591,346.976166 
	C138.844742,347.650085 128.098831,348.322815 116.841751,349.028107 
	C119.668518,346.545990 122.322037,343.405609 125.663139,341.425354 
	C138.762939,333.661194 143.768585,322.069397 142.835129,307.337433 
	C142.677353,304.847504 142.729370,302.335358 142.833450,299.839691 
	C143.024597,295.256775 141.784576,291.484711 137.001297,289.989929 
	C131.660660,288.320923 125.847809,288.043518 122.150879,292.445953 
	C120.301987,294.647705 121.305618,299.244812 120.994598,303.058563 
	C112.352097,304.428070 101.892349,295.135010 100.844635,283.937866 
	C99.655815,271.232697 108.472481,259.833740 123.156052,256.053406 
	C129.351746,254.458313 135.872025,254.124115 142.814346,253.135666 
	C142.814346,244.383591 143.169250,235.247559 142.730850,226.149780 
	C142.079605,212.635040 148.815552,204.020248 160.297882,198.588547 
	C190.975082,184.076691 221.751648,169.774872 253.011292,155.145020 
	C259.938141,168.706955 270.845093,177.559875 285.716156,181.210190 
	C300.644257,184.874527 314.128296,182.788528 325.217773,170.542526 
	C337.352417,178.140381 350.497498,182.735031 365.555511,181.986206 
	C365.555511,184.811172 365.555573,187.278473 365.555511,189.745758 
	C365.554596,238.078598 366.338165,286.430664 365.154236,334.734497 
	C364.701019,353.225677 382.082581,367.394806 399.434998,360.387238 
	C398.518982,367.443695 392.128693,375.570709 383.845184,378.755798 
	C378.965759,380.631897 373.619904,381.612213 368.395050,382.183746 
	C363.123474,382.760315 357.722656,382.047821 352.413361,382.410522 
	C343.536011,383.016998 334.686462,384.029480 325.343445,384.916840 
	C325.343445,324.351624 325.343445,262.973938 325.343445,202.591278 
	C319.897766,200.390137 315.266632,198.518234 309.859283,196.332581 
	C305.336823,197.818130 303.550079,201.401108 303.581207,207.495804 
	C303.857727,261.660492 303.744781,315.827179 303.744537,369.993286 
	C303.744537,375.979553 299.895813,378.834259 294.175446,377.349976 
	C271.170807,371.380554 247.813187,368.163818 224.005020,368.585449 
	C223.388565,368.596375 222.770187,368.498444 220.882919,368.354218 
	C225.341003,364.056854 229.231323,360.571014 232.769699,356.758514 
	C234.079391,355.347351 235.307892,353.170624 235.312943,351.339569 
	C235.448227,302.340485 235.449188,253.340775 235.287933,204.341812 
	C235.282455,202.678604 233.699814,200.613205 232.272369,199.442123 
	C228.687393,196.500961 224.838760,193.859451 220.949448,191.322220 
	C219.506653,190.381042 217.281113,189.195908 216.094238,189.706528 
	C214.872513,190.232162 213.833221,192.685898 213.824463,194.301971 
	C213.685486,219.967636 213.711899,245.634277 213.728607,271.300659 
	C213.739777,288.466522 213.775482,305.632416 213.835526,322.798187 
	C213.919434,346.787811 199.453629,366.277374 176.372818,372.948883 
	C156.229950,378.771179 135.735779,383.804230 117.633598,394.847656 
	C106.869705,401.414246 96.801285,409.121033 86.424026,416.320709 
	C85.781929,416.766205 85.173233,417.259918 83.813446,418.286438 
	C85.475433,405.228760 86.455231,392.949310 92.449516,381.892212 
	C101.391640,365.397461 115.905022,358.204651 134.134857,356.972992 
	C144.721451,356.257690 155.568695,356.080872 165.754013,353.506714 
	C181.894867,349.427399 194.585617,340.460327 198.566315,322.049927 
	C199.416763,320.171753 199.962448,318.762299 199.964188,317.352173 
	C200.011688,278.748138 200.018829,240.144058 199.946701,201.540146 
	C199.943970,200.080139 199.084137,198.621735 198.623718,197.162582 
M279.011627,207.400681 
	C278.473358,209.301865 277.469452,211.202026 277.465302,213.104401 
	C277.374725,254.556442 277.397125,296.008728 277.393402,337.460968 
	C277.392395,348.905365 277.384674,348.908600 287.918915,352.610016 
	C288.160095,352.694733 288.506866,352.478912 288.827728,352.397339 
	C288.827728,303.650482 288.827728,254.908249 288.827728,205.746689 
	C287.135193,206.054459 285.717987,206.326782 284.295349,206.566788 
	C282.820129,206.815659 281.339569,207.033234 279.011627,207.400681 
z"/>
<path fill="#A50B3F" opacity="1.000000" stroke="none" 
	d="
M378.215271,239.999939 
	C378.215271,216.540466 378.215271,193.581009 378.215271,170.106842 
	C375.521698,170.435898 373.278900,170.651001 371.055237,170.990982 
	C355.353638,173.391647 342.020111,167.645691 329.362732,159.173370 
	C322.376648,154.497162 316.364532,147.967621 307.436890,146.759323 
	C302.671631,146.114380 297.868958,145.347031 293.080902,145.331604 
	C248.097778,145.186905 203.113708,145.297607 158.130920,145.101151 
	C141.257095,145.027451 124.601868,142.860672 108.315048,138.194839 
	C85.787598,131.741180 76.036430,119.459290 75.129898,96.071022 
	C74.989815,92.456970 75.110329,88.832817 75.110329,84.691025 
	C77.260254,84.691025 78.876724,84.691132 80.493202,84.691010 
	C166.296158,84.684402 252.099197,84.612770 337.902008,84.711815 
	C362.781921,84.740540 384.257111,93.024673 400.523987,112.544373 
	C408.940643,122.644081 412.903351,134.453659 412.900513,147.613602 
	C412.887177,209.758301 412.898346,271.903015 412.890839,334.047699 
	C412.889587,344.509064 406.267731,350.924469 395.549500,350.909576 
	C384.994019,350.894928 378.229065,344.307709 378.223999,333.966156 
	C378.208649,302.810760 378.216461,271.655365 378.215271,239.999939 
z"/>
<path fill="#A50B3F" opacity="1.000000" stroke="none" 
	d="
M322.961334,398.211548 
	C323.425171,398.179108 323.889038,398.146637 324.898743,398.352844 
	C326.570007,397.974396 327.695404,397.357239 328.820770,396.740112 
	C328.820770,396.740082 328.978912,396.971069 329.285156,396.933502 
	C338.598907,393.683838 347.864319,392.748596 357.423615,392.757538 
	C365.494873,392.765076 373.627533,391.885895 381.614258,390.638672 
	C385.736877,389.994934 390.767456,389.942780 392.948639,384.925781 
	C392.948639,384.925781 392.985748,385.004364 393.323364,384.994324 
	C395.765289,382.976318 397.869568,380.968353 399.973877,378.960388 
	C399.973877,378.960388 400.000000,379.000336 400.336487,378.970764 
	C401.638367,377.518616 402.603729,376.096069 403.569122,374.673523 
	C403.569122,374.673523 403.704193,374.750610 404.019379,374.667847 
	C405.963257,371.925507 407.530090,369.225250 409.243469,366.621399 
	C410.294830,365.023499 411.570618,363.573273 412.745667,362.056763 
	C412.745911,368.381104 412.746155,374.705444 412.326599,381.639526 
	C410.954224,387.705811 410.117493,393.186066 409.006195,398.610077 
	C408.322662,401.946228 407.219452,405.196442 406.304688,408.485260 
	C406.304688,408.485260 406.241486,408.794922 405.783447,408.949707 
	C402.350891,413.181915 399.376343,417.259308 396.401764,421.336700 
	C396.401764,421.336700 396.283386,421.250519 396.028198,421.310730 
	C395.629089,421.687866 395.485199,422.004791 395.341309,422.321716 
	C395.341309,422.321716 395.136932,422.153870 394.868927,422.176544 
	C393.908356,422.944305 393.215759,423.689362 392.523193,424.434448 
	C392.523163,424.434418 392.421234,424.467529 392.036591,424.395996 
	C386.103363,426.844391 380.779877,430.413513 374.958588,431.662628 
	C363.369537,434.149445 351.552521,436.303345 339.746185,436.877258 
	C322.145905,437.732819 304.473358,437.103668 286.831573,437.103485 
	C220.924500,437.102753 155.017426,437.095581 89.110359,437.119690 
	C86.579376,437.120605 83.928810,437.578796 84.471634,433.629456 
	C84.471634,433.629456 84.565231,433.561646 84.851654,433.551758 
	C85.211685,433.248749 85.285301,432.955597 85.358925,432.662445 
	C85.358925,432.662445 85.462090,432.543854 85.855301,432.537720 
	C89.341896,429.230164 92.435280,425.928680 95.528656,422.627197 
	C95.528648,422.627197 95.615486,422.609192 95.901077,422.595825 
	C96.330566,422.281097 96.474457,421.979797 96.618347,421.678467 
	C96.618347,421.678467 96.738670,421.749390 96.982132,421.682678 
	C97.381065,421.312347 97.536530,421.008698 97.691986,420.705048 
	C97.691994,420.705048 97.913109,420.922119 98.176376,420.861481 
	C101.170120,418.413727 103.900597,416.026581 106.631058,413.639435 
	C106.631058,413.639435 106.830170,414.023285 107.081017,413.832001 
	C108.049675,412.943115 108.767487,412.245514 109.485298,411.547913 
	C109.485298,411.547913 109.586777,411.530853 109.949036,411.614258 
	C111.452141,410.696289 112.592972,409.694885 113.733810,408.693481 
	C113.733810,408.693481 114.000305,408.998779 114.240250,408.927124 
	C115.644104,407.888306 116.808022,406.921173 117.971939,405.954041 
	C117.971939,405.954041 117.992302,406.004456 118.337540,406.007477 
	C120.345093,404.883514 122.007408,403.756561 123.669731,402.629578 
	C123.669731,402.629578 123.951057,402.910217 124.140968,402.843933 
	C124.922394,402.266144 125.513908,401.754639 126.105423,401.243134 
	C126.105415,401.243134 126.164993,401.100220 126.608200,401.125549 
	C129.873383,399.618652 132.695343,398.086426 135.517319,396.554199 
	C135.517319,396.554199 135.614685,396.538818 136.013489,396.609436 
	C154.797119,389.890839 173.339920,383.712830 192.941360,381.380066 
	C195.693237,381.052582 198.361771,380.024872 201.068878,379.321289 
	C201.812439,379.239319 202.556000,379.157318 203.985565,379.382935 
	C214.382065,379.765106 224.092697,379.900970 233.802963,379.878296 
	C236.867661,379.871155 239.931335,379.439636 242.995483,379.202332 
	C243.431747,379.183289 243.867996,379.164246 244.760803,379.573364 
	C245.952026,380.299500 246.664444,380.772278 247.424774,380.869293 
	C258.391449,382.268616 269.361725,383.641205 280.338898,384.955109 
	C282.197327,385.177551 284.092224,385.095184 285.970276,385.153625 
	C286.448395,385.201630 286.926483,385.249603 287.943359,385.691681 
	C289.362091,386.538239 290.206909,387.084778 291.127411,387.428680 
	C300.518982,390.937408 309.912048,394.443176 319.337952,397.857941 
	C320.443390,398.258362 321.748688,398.107086 322.961334,398.211548 
z"/>
<path fill="#A33F61" opacity="1.000000" stroke="none" 
	d="
M84.177719,433.792786 
	C83.928810,437.578796 86.579376,437.120605 89.110359,437.119690 
	C155.017426,437.095581 220.924500,437.102753 286.831573,437.103485 
	C304.473358,437.103668 322.145905,437.732819 339.746185,436.877258 
	C351.552521,436.303345 363.369537,434.149445 374.958588,431.662628 
	C380.779877,430.413513 386.103363,426.844391 392.011108,424.443115 
	C383.836060,431.166412 373.786133,434.300293 363.445435,436.008179 
	C353.804169,437.600616 343.955414,438.667328 334.194763,438.691772 
	C251.400391,438.899200 168.605286,438.815125 85.810394,438.818451 
	C84.348160,438.818512 82.885925,438.818420 80.158997,438.818420 
	C81.828621,436.638947 82.856216,435.297546 84.177719,433.792786 
z"/>
<path fill="#082258" opacity="1.000000" stroke="none" 
	d="
M198.627365,197.617783 
	C199.084137,198.621735 199.943970,200.080139 199.946701,201.540146 
	C200.018829,240.144058 200.011688,278.748138 199.964188,317.352173 
	C199.962448,318.762299 199.416763,320.171753 198.708633,321.730774 
	C198.454025,308.408691 198.734970,294.937469 198.751648,281.465942 
	C198.786072,253.668381 198.679550,225.870651 198.627365,197.617783 
z"/>
<path fill="#A33F61" opacity="1.000000" stroke="none" 
	d="
M200.634491,379.233795 
	C198.361771,380.024872 195.693237,381.052582 192.941360,381.380066 
	C173.339920,383.712830 154.797119,389.890839 136.035324,396.565247 
	C151.509247,388.417755 168.450577,383.918610 185.879120,381.049866 
	C190.628555,380.268127 195.425156,379.772949 200.634491,379.233795 
z"/>
<path fill="#A33F61" opacity="1.000000" stroke="none" 
	d="
M392.586700,384.971313 
	C390.767456,389.942780 385.736877,389.994934 381.614258,390.638672 
	C373.627533,391.885895 365.494873,392.765076 357.423615,392.757538 
	C347.864319,392.748596 338.598907,393.683838 329.194397,396.826965 
	C336.698853,392.516846 345.219971,391.205048 354.081818,391.049133 
	C362.164032,390.906952 370.304108,390.825806 378.291992,389.764252 
	C383.062317,389.130310 387.588715,386.661072 392.586700,384.971313 
z"/>
<path fill="#A33F61" opacity="1.000000" stroke="none" 
	d="
M242.609833,379.058655 
	C239.931335,379.439636 236.867661,379.871155 233.802963,379.878296 
	C224.092697,379.900970 214.382065,379.765106 204.358673,379.426392 
	C216.771912,379.079803 229.498047,378.997406 242.609833,379.058655 
z"/>
<path fill="#A33F61" opacity="1.000000" stroke="none" 
	d="
M285.637329,384.977844 
	C284.092224,385.095184 282.197327,385.177551 280.338898,384.955109 
	C269.361725,383.641205 258.391449,382.268616 247.424774,380.869293 
	C246.664444,380.772278 245.952026,380.299500 245.082031,379.643250 
	C258.399261,381.124023 271.851807,382.963043 285.637329,384.977844 
z"/>
<path fill="#A33F61" opacity="1.000000" stroke="none" 
	d="
M322.665436,398.027344 
	C321.748688,398.107086 320.443390,398.258362 319.337952,397.857941 
	C309.912048,394.443176 300.518982,390.937408 291.127411,387.428680 
	C290.206909,387.084778 289.362091,386.538239 288.271179,385.846130 
	C297.853119,388.921112 307.655151,392.209137 317.430267,395.575348 
	C319.134857,396.162354 320.725983,397.078827 322.665436,398.027344 
z"/>
<path fill="#A33F61" opacity="1.000000" stroke="none" 
	d="
M406.576660,408.265869 
	C407.219452,405.196442 408.322662,401.946228 409.006195,398.610077 
	C410.117493,393.186066 410.954224,387.705811 412.251129,382.098389 
	C413.309509,391.226135 410.881287,399.812927 406.576660,408.265869 
z"/>
<path fill="#A33F61" opacity="1.000000" stroke="none" 
	d="
M412.850342,361.731140 
	C411.570618,363.573273 410.294830,365.023499 409.243469,366.621399 
	C407.530090,369.225250 405.963257,371.925507 403.979767,374.600952 
	C405.629211,370.336060 407.741974,366.101654 409.595795,361.756775 
	C410.658447,359.266113 411.476532,358.178589 412.850342,361.731140 
z"/>
<path fill="#A33F61" opacity="1.000000" stroke="none" 
	d="
M396.712524,421.229095 
	C399.376343,417.259308 402.350891,413.181915 405.662659,409.051575 
	C403.007660,413.039612 400.015472,417.080536 396.712524,421.229095 
z"/>
<path fill="#A33F61" opacity="1.000000" stroke="none" 
	d="
M95.216156,422.728088 
	C92.435280,425.928680 89.341896,429.230164 85.907623,432.479065 
	C88.679039,429.227356 91.791344,426.028168 95.216156,422.728088 
z"/>
<path fill="#A33F61" opacity="1.000000" stroke="none" 
	d="
M106.300987,413.718262 
	C103.900597,416.026581 101.170120,418.413727 98.081055,420.739349 
	C100.471947,418.384277 103.221428,416.090698 106.300987,413.718262 
z"/>
<path fill="#A33F61" opacity="1.000000" stroke="none" 
	d="
M399.656006,379.056213 
	C397.869568,380.968353 395.765289,382.976318 393.294220,384.961853 
	C395.064362,383.010284 397.201233,381.081177 399.656006,379.056213 
z"/>
<path fill="#A33F61" opacity="1.000000" stroke="none" 
	d="
M135.170013,396.633392 
	C132.695343,398.086426 129.873383,399.618652 126.680626,401.152924 
	C129.147461,399.674133 131.985092,398.193359 135.170013,396.633392 
z"/>
<path fill="#A33F61" opacity="1.000000" stroke="none" 
	d="
M403.294006,374.824341 
	C402.603729,376.096069 401.638367,377.518616 400.316620,378.957397 
	C400.979797,377.640778 401.999359,376.307953 403.294006,374.824341 
z"/>
<path fill="#A33F61" opacity="1.000000" stroke="none" 
	d="
M117.645706,405.997986 
	C116.808022,406.921173 115.644104,407.888306 114.107468,408.773804 
	C114.929665,407.808746 116.124573,406.925323 117.645706,405.997986 
z"/>
<path fill="#A33F61" opacity="1.000000" stroke="none" 
	d="
M123.336510,402.695526 
	C122.007408,403.756561 120.345093,404.883514 118.318054,405.988098 
	C119.636650,404.897614 121.319969,403.829559 123.336510,402.695526 
z"/>
<path fill="#A33F61" opacity="1.000000" stroke="none" 
	d="
M113.417114,408.743103 
	C112.592972,409.694885 111.452141,410.696289 109.973099,411.568787 
	C110.790070,410.557526 111.945244,409.675140 113.417114,408.743103 
z"/>
<path fill="#A33F61" opacity="1.000000" stroke="none" 
	d="
M328.477905,396.759644 
	C327.695404,397.357239 326.570007,397.974396 325.247253,398.374329 
	C326.078308,397.697815 327.106689,397.238464 328.477905,396.759644 
z"/>
<path fill="#A33F61" opacity="1.000000" stroke="none" 
	d="
M392.807434,424.341553 
	C393.215759,423.689362 393.908356,422.944305 394.951630,422.279724 
	C394.565460,422.989716 393.828583,423.619171 392.807434,424.341553 
z"/>
<path fill="#A33F61" opacity="1.000000" stroke="none" 
	d="
M109.192520,411.624390 
	C108.767487,412.245514 108.049675,412.943115 106.992142,413.635498 
	C107.401527,412.987152 108.150635,412.344025 109.192520,411.624390 
z"/>
<path fill="#A33F61" opacity="1.000000" stroke="none" 
	d="
M125.812958,401.244141 
	C125.513908,401.754639 124.922394,402.266144 124.013031,402.691895 
	C124.303627,402.152496 124.912056,401.698792 125.812958,401.244141 
z"/>
<path fill="#A33F61" opacity="1.000000" stroke="none" 
	d="
M85.175812,432.730408 
	C85.285301,432.955597 85.211685,433.248749 84.881210,433.502136 
	C84.640266,433.181763 84.763046,432.960419 85.175812,432.730408 
z"/>
<path fill="#A33F61" opacity="1.000000" stroke="none" 
	d="
M96.386642,421.724731 
	C96.474457,421.979797 96.330566,422.281097 95.914490,422.553558 
	C95.675385,422.179749 95.846268,421.928528 96.386642,421.724731 
z"/>
<path fill="#A33F61" opacity="1.000000" stroke="none" 
	d="
M395.585236,422.265320 
	C395.485199,422.004791 395.629089,421.687866 396.055939,421.378479 
	C396.168976,421.660309 395.999084,421.934631 395.585236,422.265320 
z"/>
<path fill="#A33F61" opacity="1.000000" stroke="none" 
	d="
M97.450378,420.762878 
	C97.536530,421.008698 97.381065,421.312347 96.951355,421.619995 
	C96.717567,421.265747 96.894791,420.997955 97.450378,420.762878 
z"/>
<path fill="#FEFEFF" opacity="1.000000" stroke="none" 
	d="
M633.101379,637.646240 
	C672.255188,636.136047 705.699646,648.655090 732.707520,676.359253 
	C741.304810,685.178101 747.991333,695.990845 754.782043,706.393921 
	C759.351624,713.394409 764.251770,719.217590 773.216125,718.368958 
	C778.605957,717.858704 783.834656,715.769348 789.169617,714.535828 
	C817.932556,707.885132 847.853699,718.944214 864.307251,742.076721 
	C883.485168,769.039490 884.535217,799.965271 866.132751,827.447510 
	C855.448608,843.403137 840.047485,853.325684 821.196045,857.557312 
	C799.982605,862.319153 780.622131,857.850159 762.876465,845.617310 
	C754.886230,840.109314 745.441284,841.038574 739.107361,848.353394 
	C720.544434,869.791321 697.479187,883.934875 669.980286,890.503235 
	C653.799866,894.368042 637.280945,894.619141 620.866211,891.843079 
	C589.510986,886.540222 564.164062,870.838501 543.706543,846.740723 
	C536.224792,837.927429 527.466858,836.700195 517.444641,843.122681 
	C505.314240,850.896057 492.010559,854.944824 477.806213,854.827026 
	C458.646637,854.668030 441.535889,848.070007 427.510529,834.848267 
	C406.544952,815.083923 399.248962,790.532043 406.597748,762.976685 
	C414.387909,733.766174 434.346161,716.249390 463.987823,709.536926 
	C478.423889,706.267822 492.207764,708.345764 505.590363,713.406189 
	C516.749329,717.625732 525.509338,712.034485 529.999146,704.019897 
	C540.869568,684.615356 555.858032,668.967896 574.524414,656.991333 
	C592.193970,645.654297 611.620667,639.209656 633.101379,637.646240 
z"/>
<path fill="#FAFBFE" opacity="1.000000" stroke="none" 
	d="
M536.025818,622.114380 
	C544.361084,590.340393 572.312866,566.840515 607.395386,565.446777 
	C638.078918,564.227661 664.885254,582.558105 674.903870,605.627136 
	C621.988708,595.828674 575.342712,608.788452 533.180542,642.838257 
	C534.076477,636.056458 534.972473,629.274658 536.025818,622.114380 
z"/>
<path fill="#F0F4F8" opacity="1.000000" stroke="none" 
	d="
M279.436493,207.332581 
	C281.339569,207.033234 282.820129,206.815659 284.295349,206.566788 
	C285.717987,206.326782 287.135193,206.054459 288.827728,205.746689 
	C288.827728,254.908249 288.827728,303.650482 288.827728,352.397339 
	C288.506866,352.478912 288.160095,352.694733 287.918915,352.610016 
	C277.384674,348.908600 277.392395,348.905365 277.393402,337.460968 
	C277.397125,296.008728 277.374725,254.556442 277.465302,213.104401 
	C277.469452,211.202026 278.473358,209.301865 279.436493,207.332581 
z"/>
</svg>